<?xml version="1.0" encoding="UTF-8"?>
<svg id="Lager_2" data-name="Lager 2" xmlns="http://www.w3.org/2000/svg" viewBox="0 0 396.96 374.29">
  <defs>
    <style>
      .cls-1 {
        fill: #9d2105;
      }

      .cls-2 {
        fill: #282105;
      }

      .cls-3 {
        fill: none;
        stroke: #faff2a;
        stroke-linecap: round;
        stroke-linejoin: round;
        stroke-width: 25px;
      }
    </style>
  </defs>
  <g id="Lager_1-2" data-name="Lager 1">
    <g>
      <path class="cls-1" d="M353.41,374.29l-24.3-5.87-34.23-7.17-39.49-5.87-57.26-3.26-46.07,1.96-36.86,5.22-36.2,7.82-36.26,7.17c-7.24,0-13.16-5.87-13.16-13.04v-95.18c0-7.17,5.92-13.04,13.16-13.04H353.41c7.24,0,13.16,5.87,13.16,13.04v95.18c0,7.17-5.92,13.04-13.16,13.04Z"/>
      <path class="cls-1" d="M395.81,209.8c-.75,1.89-1.86,3.66-3.35,5.19l-90.69,93.11H95.2L4.51,214.99c-1.34-1.37-2.38-2.95-3.12-4.63-2.59-5.85-1.55-13.01,3.12-17.81L187.55,4.63c6.01-6.17,15.84-6.17,21.85,0l183.05,187.93c4.52,4.64,5.64,11.5,3.35,17.25Z"/>
      <path class="cls-2" d="M347.07,365l-23.24-5.67-32.74-6.93-37.78-5.67-54.78-3.15-44.07,1.89-35.26,5.04-34.63,7.56-34.68,6.93c-6.93,0-12.59-5.67-12.59-12.59v-91.93c0-6.93,5.67-12.59,12.59-12.59H347.07c6.93,0,12.59,5.67,12.59,12.59v91.93c0,6.93-5.67,12.59-12.59,12.59Z"/>
      <path class="cls-2" d="M381.33,208.06c-.69,1.7-1.73,3.3-3.11,4.68l-84.03,84.03H102.78L18.74,212.74c-1.24-1.24-2.21-2.66-2.89-4.17-2.4-5.28-1.44-11.74,2.89-16.07L188.36,22.88c5.57-5.57,14.68-5.57,20.25,0l169.61,169.61c4.19,4.19,5.23,10.38,3.11,15.57Z"/>
      <path class="cls-1" d="M359.67,205.7v61.7c0,6.93-5.67,12.59-12.59,12.59H49.89c-6.93,0-12.59-5.67-12.59-12.59v-61.7c0-1.13,.15-2.23,.43-3.27,1.45-5.36,6.36-9.32,12.16-9.32H347.07c5.64,0,10.43,3.75,12.03,8.88,.37,1.18,.56,2.42,.56,3.71Z"/>
      <path class="cls-3" d="M41.92,234.56c0,15.76,70.07,28.54,156.5,28.54s156.5-12.78,156.5-28.54"/>
    </g>
  </g>
</svg>